<?xml version="1.0" encoding="utf-8"?>
<!-- Generator: Adobe Illustrator 24.0.1, SVG Export Plug-In . SVG Version: 6.00 Build 0)  -->
<svg version="1.1" id="Layer_1" xmlns="http://www.w3.org/2000/svg" xmlns:xlink="http://www.w3.org/1999/xlink" x="0px" y="0px"
	 viewBox="0 0 500 500" style="enable-background:new 0 0 500 500;" xml:space="preserve">
<style type="text/css">
	.st0{clip-path:url(#SVGID_2_);}
	.st1{fill:#3D5A98;}
	.st2{fill:#FFFFFF;}
</style>
<g>
	<defs>
		<path id="SVGID_1_" d="M282.71,186.82h-42.27c-9.53,0-17.33,7.8-17.33,17.33v42.27c0,9.53,7.8,17.33,17.33,17.33h42.27
			c9.53,0,17.33-7.8,17.33-17.33v-42.27C300.04,194.62,292.24,186.82,282.71,186.82z"/>
	</defs>
	<clipPath id="SVGID_2_">
		<use xlink:href="#SVGID_1_"  style="overflow:visible;"/>
	</clipPath>
	<g class="st0">
		<path class="st1" d="M295.79,263.7c2.34,0,4.25-1.9,4.25-4.25v-68.44c0-2.35-1.9-4.25-4.25-4.25h-68.44
			c-2.35,0-4.25,1.9-4.25,4.25v68.44c0,2.34,1.9,4.25,4.25,4.25H295.79z"/>
		<path class="st2" d="M276.19,263.7V233.9h10l1.5-11.61h-11.5v-7.41c0-3.36,0.93-5.65,5.75-5.65l6.15,0v-10.38
			c-1.06-0.14-4.71-0.46-8.96-0.46c-8.87,0-14.93,5.41-14.93,15.35v8.56h-10.03v11.61h10.03v29.79H276.19z"/>
	</g>
</g>
</svg>
