<svg xmlns="http://www.w3.org/2000/svg" width="679.789" height="181.645" viewBox="0 0 679.789 181.645">
    <defs>
        <style>
            .prefix__cls-1{fill:#fff}.prefix__cls-2{fill:#00eda9}
        </style>
    </defs>
    <g id="prefix__banner_1_logo">
        <g id="prefix__그룹_2185" data-name="그룹 2185">
            <path id="prefix__패스_4458" d="M5.667 181.373A5.667 5.667 0 0 1 0 175.708v-63.115a5.666 5.666 0 1 1 11.332 0v63.115a5.666 5.666 0 0 1-5.664 5.665z" class="prefix__cls-1" data-name="패스 4458"/>
        </g>
        <g id="prefix__그룹_2186" data-name="그룹 2186">
            <path id="prefix__패스_4459" d="M108.839 181.374H77.688a5.666 5.666 0 0 1-5.665-5.664v-63.061a5.666 5.666 0 1 1 11.332 0v57.394h25.485a5.666 5.666 0 1 1 0 11.331z" class="prefix__cls-1" data-name="패스 4459"/>
        </g>
        <g id="prefix__그룹_2187" data-name="그룹 2187">
            <path id="prefix__패스_4460" d="M31.97 164.173h-6.746a5.666 5.666 0 1 1 0-11.332h6.746a17.292 17.292 0 1 0 0-34.584h-6.746a5.666 5.666 0 1 1 0-11.332h6.746a28.623 28.623 0 0 1 0 57.246z" class="prefix__cls-1" data-name="패스 4460"/>
        </g>
        <g id="prefix__그룹_2188" data-name="그룹 2188">
            <path id="prefix__패스_4461" d="M447.258 181.373a5.666 5.666 0 0 1-5.665-5.664v-63.116a5.666 5.666 0 1 1 11.331 0v63.115a5.666 5.666 0 0 1-5.665 5.665z" class="prefix__cls-1" data-name="패스 4461"/>
        </g>
        <g id="prefix__그룹_2189" data-name="그룹 2189">
            <path id="prefix__패스_4462" d="M473.3 181.356h-5.092a5.666 5.666 0 0 1 0-11.332h5.092a25.883 25.883 0 0 0 .03-51.766h-5.122a5.666 5.666 0 1 1 0-11.332h5.092a37.215 37.215 0 1 1 0 74.43z" class="prefix__cls-1" data-name="패스 4462"/>
        </g>
        <path id="prefix__패스_251734" d="M183.7 173.694l-25.275-63.151a5.667 5.667 0 0 0-10.549.073l-24.288 63.151a5.669 5.669 0 1 0 10.583 4.066l4.761-12.38H168.2l4.982 12.452a5.667 5.667 0 1 0 10.522-4.211zm-40.409-19.572l9.985-25.962 10.387 25.962z" class="prefix__cls-1" data-name="패스 251734"/>
        <path id="prefix__패스_251735" d="M575.006 173.679l-25.273-63.134a5.667 5.667 0 0 0-5.26-3.56h-.038a5.67 5.67 0 0 0-5.251 3.631L514.9 173.75a5.666 5.666 0 1 0 10.577 4.068l4.762-12.378H559.5l4.984 12.451A5.666 5.666 0 1 0 575 173.679zm-40.413-19.57l9.984-25.953 10.389 25.953z" class="prefix__cls-1" data-name="패스 251735"/>
        <path id="prefix__패스_251736" d="M679.372 173.679L654.1 110.545a5.612 5.612 0 0 0-5.3-3.56 5.67 5.67 0 0 0-5.251 3.631l-24.291 63.134a5.667 5.667 0 1 0 10.578 4.068l4.764-12.378h29.269l4.985 12.451.018.046a5.666 5.666 0 1 0 10.5-4.258zm-40.415-19.57l9.984-25.953 10.39 25.953z" class="prefix__cls-1" data-name="패스 251736"/>
        <g id="prefix__그룹_2196" data-name="그룹 2196">
            <path id="prefix__패스_4469" d="M367.913 181.642a5.667 5.667 0 0 1-4.706-8.815l42.335-63.381a5.668 5.668 0 1 1 9.424 6.3l-42.34 63.378a5.659 5.659 0 0 1-4.713 2.518z" class="prefix__cls-2" data-name="패스 4469"/>
        </g>
        <g id="prefix__그룹_2197" data-name="그룹 2197">
            <path id="prefix__패스_4470" d="M326.891 181.642a5.671 5.671 0 0 1-5.666-5.668v-44.7l-31.954 47.85a5.667 5.667 0 0 1-10.38-3.15v-63.381a5.666 5.666 0 1 1 11.331 0v44.7l31.958-47.845a5.666 5.666 0 0 1 10.377 3.147v44.7l31.957-47.845a5.668 5.668 0 1 1 9.424 6.3l-42.333 63.374a5.667 5.667 0 0 1-4.714 2.518z" class="prefix__cls-2" data-name="패스 4470"/>
        </g>
        <g id="prefix__그룹_2198" data-name="그룹 2198">
            <path id="prefix__패스_4471" d="M612.837 118.314h-31.153a5.666 5.666 0 1 1 0-11.332h31.151a5.666 5.666 0 1 1 0 11.331z" class="prefix__cls-1" data-name="패스 4471"/>
        </g>
        <g id="prefix__그룹_2199" data-name="그룹 2199">
            <path id="prefix__패스_4472" d="M597.262 181.466a5.667 5.667 0 0 1-5.662-5.666v-63.152a5.666 5.666 0 1 1 11.331 0V175.8a5.667 5.667 0 0 1-5.668 5.666z" class="prefix__cls-1" data-name="패스 4472"/>
        </g>
        <g id="prefix__그룹_2200" data-name="그룹 2200">
            <path id="prefix__패스_4473" d="M5.667 74.5A5.667 5.667 0 0 1 0 68.835V5.722a5.666 5.666 0 1 1 11.332 0v63.113A5.666 5.666 0 0 1 5.668 74.5z" class="prefix__cls-1" data-name="패스 4473"/>
        </g>
        <g id="prefix__그룹_2201" data-name="그룹 2201">
            <path id="prefix__패스_4474" d="M108.839 74.5H77.688a5.666 5.666 0 0 1-5.665-5.664V5.778a5.666 5.666 0 1 1 11.332 0V63.17h25.485a5.666 5.666 0 1 1 0 11.331z" class="prefix__cls-1" data-name="패스 4474"/>
        </g>
        <g id="prefix__그룹_2202" data-name="그룹 2202">
            <path id="prefix__패스_4475" d="M31.97 57.3h-6.746a5.666 5.666 0 0 1 0-11.332h6.746a17.291 17.291 0 1 0 0-34.582h-6.746a5.666 5.666 0 1 1 0-11.332h6.746a28.623 28.623 0 1 1 0 57.245z" class="prefix__cls-1" data-name="패스 4475"/>
        </g>
        <g id="prefix__그룹_2203" data-name="그룹 2203">
            <path id="prefix__패스_4476" d="M517.768 74.485a5.665 5.665 0 0 1-5.665-5.666v-63.1a5.666 5.666 0 1 1 11.331 0v63.1a5.666 5.666 0 0 1-5.666 5.666z" class="prefix__cls-1" data-name="패스 4476"/>
        </g>
        <g id="prefix__그룹_2205" data-name="그룹 2205">
            <path id="prefix__패스_4478" d="M203.412 44.9a5.668 5.668 0 0 1-5.232-3.487L184.233 7.958A5.667 5.667 0 0 1 194.692 3.6l13.947 33.456a5.667 5.667 0 0 1-5.227 7.844z" class="prefix__cls-1" data-name="패스 4478"/>
        </g>
        <path id="prefix__패스_251737" d="M183.7 66.822l-25.271-63.15a5.667 5.667 0 0 0-5.26-3.56h-.038a5.668 5.668 0 0 0-5.251 3.632l-24.289 63.15a5.668 5.668 0 1 0 10.581 4.067l4.762-12.38H168.2l4.982 12.452a5.667 5.667 0 0 0 10.518-4.211zM143.293 47.25l9.986-25.961 10.388 25.961z" class="prefix__cls-1" data-name="패스 251737"/>
        <path id="prefix__패스_251738" d="M499.193 66.8L473.919 3.674a5.667 5.667 0 0 0-5.26-3.56h-.038a5.669 5.669 0 0 0-5.251 3.63l-24.289 63.134a5.666 5.666 0 1 0 10.577 4.068l4.762-12.378h29.271l4.982 12.444.039.1a5.667 5.667 0 1 0 10.481-4.312zm-40.414-19.563l9.985-25.957 10.391 25.957z" class="prefix__cls-1" data-name="패스 251738"/>
        <g id="prefix__그룹_2209" data-name="그룹 2209">
            <path id="prefix__패스_4482" d="M211.189 74.77a5.666 5.666 0 0 1-5.21-7.888L232.991 3.5a5.666 5.666 0 1 1 10.47 4.335l-.046.108L216.4 71.324a5.666 5.666 0 0 1-5.211 3.446z" class="prefix__cls-1" data-name="패스 4482"/>
        </g>
        <g id="prefix__그룹_2210" data-name="그룹 2210">
            <path id="prefix__패스_4483" d="M203.412 151.771a5.668 5.668 0 0 1-5.232-3.487l-13.949-33.458a5.667 5.667 0 1 1 10.425-4.447l.036.086 13.947 33.461a5.666 5.666 0 0 1-5.228 7.848z" class="prefix__cls-1" data-name="패스 4483"/>
        </g>
        <g id="prefix__그룹_2211" data-name="그룹 2211">
            <path id="prefix__패스_4484" d="M211.189 181.643a5.669 5.669 0 0 1-5.21-7.889l27.013-63.381a5.666 5.666 0 1 1 10.484 4.3l-.06.139L216.4 178.2a5.664 5.664 0 0 1-5.211 3.443z" class="prefix__cls-1" data-name="패스 4484"/>
        </g>
        <g id="prefix__그룹_2212" data-name="그룹 2212">
            <path id="prefix__패스_4485" d="M367.913 74.77a5.667 5.667 0 0 1-4.706-8.815l42.335-63.381a5.668 5.668 0 1 1 9.424 6.3l-42.335 63.381a5.661 5.661 0 0 1-4.718 2.515z" class="prefix__cls-2" data-name="패스 4485"/>
        </g>
        <g id="prefix__그룹_2213" data-name="그룹 2213">
            <path id="prefix__패스_4486" d="M326.891 74.77a5.667 5.667 0 0 1-5.666-5.666V24.4l-31.954 47.851a5.666 5.666 0 0 1-10.38-3.151V5.723a5.666 5.666 0 1 1 11.331 0v44.7L322.18 2.577a5.666 5.666 0 0 1 10.377 3.148v44.7l31.957-47.846a5.668 5.668 0 1 1 9.424 6.3L331.6 72.26a5.666 5.666 0 0 1-4.709 2.51z" class="prefix__cls-2" data-name="패스 4486"/>
        </g>
    </g>
</svg>
