<?xml version="1.0" encoding="utf-8"?>
<!-- Generator: Adobe Illustrator 16.0.0, SVG Export Plug-In . SVG Version: 6.00 Build 0)  -->
<!DOCTYPE svg PUBLIC "-//W3C//DTD SVG 1.1//EN" "http://www.w3.org/Graphics/SVG/1.1/DTD/svg11.dtd">
<svg version="1.1" id="Layer_1" xmlns="http://www.w3.org/2000/svg" xmlns:xlink="http://www.w3.org/1999/xlink" x="0px" y="0px"
	 width="27px" height="17px" viewBox="0 0 27 17" enable-background="new 0 0 27 17" xml:space="preserve">
<path id="prefix__arrow_1" fill="#DDDDDD" d="M26.895,7.953c0.141,0.351,0.141,0.744,0,1.095L26.886,9.07
	c-0.074,0.184-0.185,0.351-0.324,0.491l-7,7c-0.586,0.586-1.536,0.586-2.122,0s-0.586-1.536,0-2.122l0,0L21.879,10H1.5
	C0.672,10,0,9.329,0,8.5S0.672,7,1.5,7h20.379l-4.439-4.438c-0.586-0.586-0.586-1.536,0-2.122s1.536-0.586,2.122,0l0,0l7,7
	c0.14,0.141,0.25,0.308,0.324,0.491L26.895,7.953z"/>
</svg>
