<?xml version="1.0" encoding="utf-8"?>
<!-- Generator: Adobe Illustrator 16.0.0, SVG Export Plug-In . SVG Version: 6.00 Build 0)  -->
<!DOCTYPE svg PUBLIC "-//W3C//DTD SVG 1.1//EN" "http://www.w3.org/Graphics/SVG/1.1/DTD/svg11.dtd">
<svg version="1.1" id="Layer_1" xmlns="http://www.w3.org/2000/svg" xmlns:xlink="http://www.w3.org/1999/xlink" x="0px" y="0px"
	 width="27px" height="17px" viewBox="0 0 27 17" enable-background="new 0 0 27 17" xml:space="preserve">
<path id="prefix__arrow_2" fill="#00EDA9" d="M0.105,7.953c-0.141,0.351-0.141,0.744,0,1.094L0.114,9.07
	C0.189,9.253,0.299,9.42,0.439,9.561l7,7c0.586,0.586,1.535,0.586,2.121,0s0.586-1.536,0-2.122l0,0L5.121,10H25.5
	c0.828,0,1.5-0.672,1.5-1.5C27,7.672,26.328,7,25.5,7H5.121l4.439-4.438c0.586-0.586,0.586-1.536,0-2.122s-1.535-0.586-2.121,0l0,0
	l-7,7C0.299,7.58,0.189,7.747,0.114,7.931L0.105,7.953z"/>
</svg>
