<svg xmlns="http://www.w3.org/2000/svg" width="161.717" height="51.816" viewBox="0 0 161.717 51.816">
    <defs>
        <style>
            .prefix__cls-1{fill:#fff}
        </style>
    </defs>
    <g id="prefix__logo-w" transform="translate(.001 .001)">
        <path id="prefix__패스_2641" d="M437.022 12.609l8.342-.007a1.764 1.764 0 0 0 0-3.529l-6.578.006-.007-7.317a1.764 1.764 0 0 0-3.529 0l.008 9.081a1.765 1.765 0 0 0 1.766 1.763" class="prefix__cls-1" data-name="패스 2641" transform="translate(-311.211)"/>
        <path id="prefix__패스_2642" d="M23.553 53.969h-4.042v-3.954a1.764 1.764 0 0 0-3.529 0l.005 5.719A1.764 1.764 0 0 0 17.75 57.5l5.806-.005a1.764 1.764 0 1 0 0-3.529" class="prefix__cls-1" data-name="패스 2642" transform="translate(-11.426 -34.504)"/>
        <path id="prefix__패스_2643" d="M125.382 7.911l8.342-.007a1.764 1.764 0 0 0 0-3.529l-8.342.007a1.764 1.764 0 1 0 0 3.529" class="prefix__cls-1" data-name="패스 2643" transform="translate(-88.388 -3.129)"/>
        <path id="prefix__패스_2644" d="M125.4 32.552l8.342-.007a1.764 1.764 0 1 0 0-3.529l-6.578.006v-2.641l6.578-.006a1.764 1.764 0 1 0 0-3.529l-8.342.007a1.764 1.764 0 0 0-1.763 1.766l.005 6.17a1.765 1.765 0 0 0 1.766 1.763" class="prefix__cls-1" data-name="패스 2644" transform="translate(-88.4 -16.336)"/>
        <path id="prefix__패스_2645" d="M446.191 82.071a1.764 1.764 0 0 0-1.766-1.763l-9.664.009c-.02 0-.039.005-.06.006a1.682 1.682 0 0 0-.189.019c-.053.007-.106.014-.158.027s-.111.033-.167.052-.106.036-.157.059-.1.052-.148.081-.1.058-.148.092-.082.066-.123.1a1.73 1.73 0 0 0-.139.132c-.013.014-.029.025-.042.04s-.036.053-.056.079a1.735 1.735 0 0 0-.111.158c-.029.047-.054.1-.078.144a1.679 1.679 0 0 0-.07.161c-.021.055-.037.111-.052.168s-.026.106-.035.161a1.757 1.757 0 0 0-.019.19c0 .033-.01.064-.01.1s.005.04.006.059a1.682 1.682 0 0 0 .019.189c.008.054.015.107.027.159a1.755 1.755 0 0 0 .052.168c.019.053.036.105.058.156s.053.1.082.15.057.1.09.146.068.084.1.127a1.806 1.806 0 0 0 .129.135c.015.014.026.031.041.044l6.1 5.28h-4.937c-.021 0-.041.005-.062.006a1.757 1.757 0 0 0-.181.019c-.056.008-.111.015-.166.028s-.107.032-.16.05-.11.037-.163.062-.1.051-.144.079a1.719 1.719 0 0 0-.151.094c-.042.031-.081.066-.121.1a1.719 1.719 0 0 0-.141.133c-.013.015-.029.025-.042.04s-.036.052-.056.079a1.691 1.691 0 0 0-.111.157c-.029.047-.054.1-.078.144a1.655 1.655 0 0 0-.07.161 1.719 1.719 0 0 0-.052.167c-.014.053-.026.106-.035.161a1.757 1.757 0 0 0-.019.19c0 .033-.01.064-.01.1s.005.04.006.06a1.682 1.682 0 0 0 .019.189c.008.053.015.107.027.158a1.755 1.755 0 0 0 .052.168c.019.053.036.106.058.156s.053.1.082.15a1.653 1.653 0 0 0 .09.146c.032.044.068.085.1.126a1.813 1.813 0 0 0 .129.136c.015.014.026.031.041.044l9.672 8.373a1.764 1.764 0 0 0 2.32-2.675l-6.1-5.28h4.937a1.734 1.734 0 0 0 .363-.039c.019 0 .035-.012.054-.017a1.744 1.744 0 0 0 .288-.094c.034-.015.064-.036.1-.053a1.66 1.66 0 0 0 .215-.126c.035-.025.067-.055.1-.083a1.888 1.888 0 0 0 .176-.162c.012-.014.027-.023.039-.037s.036-.053.056-.079a1.728 1.728 0 0 0 .111-.157c.029-.047.054-.1.078-.144a1.674 1.674 0 0 0 .07-.16c.021-.056.037-.111.052-.168s.026-.105.035-.16a1.769 1.769 0 0 0 .019-.19c0-.033.01-.064.01-.1s-.005-.039-.006-.059a1.625 1.625 0 0 0-.019-.189c-.007-.053-.014-.107-.026-.158a1.745 1.745 0 0 0-.052-.169c-.019-.052-.036-.105-.058-.156a1.7 1.7 0 0 0-.083-.151 1.683 1.683 0 0 0-.09-.145c-.032-.044-.069-.085-.105-.127a1.733 1.733 0 0 0-.128-.135c-.015-.014-.026-.03-.041-.044l-6.1-5.28h4.937a1.766 1.766 0 0 0 1.763-1.767" class="prefix__cls-1" data-name="패스 2645" transform="translate(-309.601 -57.422)"/>
        <path id="prefix__패스_2646" d="M435.972 140.491a1.764 1.764 0 0 0-2.31 2.667l9.672 8.373a1.764 1.764 0 1 0 2.31-2.667z" class="prefix__cls-1" data-name="패스 2646" transform="translate(-309.641 -100.146)"/>
        <path id="prefix__패스_2647" d="M353.934 4.568A5.266 5.266 0 1 0 359.2 9.83a5.272 5.272 0 0 0-5.27-5.262m.006 7a1.737 1.737 0 1 1 1.736-1.738 1.739 1.739 0 0 1-1.736 1.738" class="prefix__cls-1" data-name="패스 2647" transform="translate(-249.308 -3.267)"/>
        <path id="prefix__패스_2648" d="M399.57 7.679a1.764 1.764 0 1 0 0-3.529h-4.5a1.764 1.764 0 0 0-1.77 1.77l.01 11.039a1.764 1.764 0 1 0 3.529 0v-3.953h2.74a1.764 1.764 0 1 0 0-3.529h-2.74V7.683z" class="prefix__cls-1" data-name="패스 2648" transform="translate(-281.217 -2.968)"/>
        <path id="prefix__패스_2649" d="M217.685 4.31a1.765 1.765 0 0 0-1.763 1.766l.015 16.425h-2.517a1.764 1.764 0 1 0 0 3.529h4.281a1.764 1.764 0 0 0 1.763-1.766l-.016-18.189a1.765 1.765 0 0 0-1.766-1.763" class="prefix__cls-1" data-name="패스 2649" transform="translate(-151.339 -3.082)"/>
        <path id="prefix__패스_2650" d="M248.278 4.293a1.765 1.765 0 0 0-1.763 1.766l.016 18.189a1.764 1.764 0 1 0 3.529 0l-.016-18.189a1.765 1.765 0 0 0-1.766-1.763" class="prefix__cls-1" data-name="패스 2650" transform="translate(-176.263 -3.07)"/>
        <path id="prefix__패스_2651" d="M273.9 4.638a5.266 5.266 0 1 0 5.27 5.262 5.272 5.272 0 0 0-5.27-5.262m.006 7a1.737 1.737 0 1 1 1.735-1.738 1.738 1.738 0 0 1-1.736 1.738" class="prefix__cls-1" data-name="패스 2651" transform="translate(-192.082 -3.317)"/>
        <path id="prefix__패스_2652" d="M184.981 15.248a5.266 5.266 0 1 0-5.27-5.261 5.272 5.272 0 0 0 5.27 5.261m-.006-7a1.737 1.737 0 1 1-1.736 1.739 1.739 1.739 0 0 1 1.736-1.739" class="prefix__cls-1" data-name="패스 2652" transform="translate(-128.497 -3.373)"/>
        <path id="prefix__패스_2653" d="M60.429 12.34a1.764 1.764 0 1 0 0 3.529l10.509-.009a1.764 1.764 0 0 0 0-3.529h-.854V7.955h.854a1.764 1.764 0 0 0 0-3.529l-10.509.009a1.764 1.764 0 0 0 0 3.529h.852v4.376zm4.377-4.38h1.746v4.376h-1.743z" class="prefix__cls-1" data-name="패스 2653" transform="translate(-41.943 -3.165)"/>
        <path id="prefix__패스_2654" d="M9.415 12.935A1.764 1.764 0 1 0 12.3 10.91l-4.553-6.5c-.024-.033-.054-.06-.08-.091a1.689 1.689 0 0 0-.121-.14 1.653 1.653 0 0 0-.146-.124c-.03-.024-.054-.052-.086-.074-.011-.008-.023-.012-.034-.02a1.666 1.666 0 0 0-.176-.1c-.045-.023-.089-.048-.135-.067s-.112-.037-.168-.054-.101-.031-.16-.04-.11-.013-.165-.019-.114-.014-.171-.014-.113.009-.17.014-.111.008-.165.019-.109.029-.162.045a1.7 1.7 0 0 0-.168.055c-.048.02-.092.045-.139.07a1.8 1.8 0 0 0-.171.1c-.012.008-.025.012-.037.021-.034.023-.059.053-.091.079a1.267 1.267 0 0 0-.269.27c-.024.029-.052.053-.074.085L.318 10.92a1.764 1.764 0 1 0 2.891 2.021l3.1-4.441z" class="prefix__cls-1" data-name="패스 2654" transform="translate(0 -2.622)"/>
        <path id="prefix__패스_2655" d="M497.749 9.475V7.584h2.127a1.765 1.765 0 0 0 1.754-1.94 1.816 1.816 0 0 0-1.83-1.59l-7.631.007a1.816 1.816 0 0 0-1.83 1.592 1.765 1.765 0 0 0 1.758 1.936h2.127v1.892L490 15.526a1.764 1.764 0 1 0 2.892 2.021l3.1-4.436 3.107 4.43a1.764 1.764 0 0 0 2.89-2.025z" class="prefix__cls-1" data-name="패스 2655" transform="translate(-350.13 -2.899)"/>
        <path id="prefix__패스_2656" d="M131.311 68.2l-11.614.01a1.764 1.764 0 0 0 0 3.529l11.614-.01a1.764 1.764 0 1 0 0-3.529" class="prefix__cls-1" data-name="패스 2656" transform="translate(-84.326 -48.763)"/>
        <path id="prefix__패스_2657" d="M442.939 51.585h-3.964v-1.459a1.764 1.764 0 1 0-3.529 0v1.462h-4.12a1.764 1.764 0 1 0 0 3.529l11.613-.01a1.764 1.764 0 1 0 0-3.529" class="prefix__cls-1" data-name="패스 2657" transform="translate(-307.146 -34.581)"/>
        <path id="prefix__패스_2658" d="M70.143 55.7l-11.613.01a1.764 1.764 0 1 0 0 3.529l11.613-.01a1.764 1.764 0 1 0 0-3.529" class="prefix__cls-1" data-name="패스 2658" transform="translate(-40.59 -39.831)"/>
        <path id="prefix__패스_2659" d="M180.312 50.35a1.765 1.765 0 0 1 1.763-1.766l6.676-.006a1.765 1.765 0 0 1 0 3.529h-4.912v3.815a1.764 1.764 0 0 1-3.529 0z" class="prefix__cls-1" data-name="패스 2659" transform="translate(-128.927 -34.735)"/>
        <path id="prefix__패스_2660" d="M545.542 4.022h-4.5a1.765 1.765 0 0 0-1.763 1.766l.01 10.928a1.764 1.764 0 0 0 3.529 0l-.008-9.164h2.74a1.765 1.765 0 0 0 0-3.529" class="prefix__cls-1" data-name="패스 2660" transform="translate(-385.592 -2.877)"/>
        <path id="prefix__패스_2661" d="M316.5 4.223H312a1.764 1.764 0 1 0 0 3.529h2.74l.008 9.275a1.764 1.764 0 0 0 3.529 0l-.01-11.039a1.765 1.765 0 0 0-1.767-1.765" class="prefix__cls-1" data-name="패스 2661" transform="translate(-221.821 -3.02)"/>
    </g>
</svg>
