<svg xmlns="http://www.w3.org/2000/svg" width="161.717" height="51.816" viewBox="0 0 161.717 51.816">
    <g>
        <path d="M125.811 12.609l8.342-.007a1.764 1.764 0 0 0 0-3.529l-6.578.006-.007-7.317a1.764 1.764 0 0 0-3.529 0l.008 9.081a1.765 1.765 0 0 0 1.766 1.763" data-name="패스 2662" transform="translate(.001 .001)"/>
        <path d="M12.127 19.465H8.085v-3.954a1.764 1.764 0 0 0-3.529 0l.005 5.719a1.764 1.764 0 0 0 1.763 1.766l5.806-.005a1.764 1.764 0 1 0 0-3.529" data-name="패스 2663" transform="translate(.001 .001)"/>
        <path d="M36.994 4.782l8.342-.007a1.764 1.764 0 1 0 0-3.529l-8.342.007a1.764 1.764 0 1 0 0 3.529" data-name="패스 2664" transform="translate(.001 .001)"/>
        <path d="M37 16.216l8.342-.007a1.764 1.764 0 1 0 0-3.529l-6.578.006v-2.641l6.578-.006a1.764 1.764 0 1 0 0-3.529L37 6.517a1.764 1.764 0 0 0-1.763 1.766l.005 6.17a1.765 1.765 0 0 0 1.766 1.763" data-name="패스 2665" transform="translate(.001 .001)"/>
        <path d="M136.59 24.649a1.764 1.764 0 0 0-1.766-1.763l-9.664.009c-.02 0-.039.005-.06.006a1.685 1.685 0 0 0-.189.019c-.053.007-.106.014-.158.027s-.111.033-.167.052-.106.036-.157.059-.1.052-.148.081-.1.058-.148.092-.082.066-.123.1a1.738 1.738 0 0 0-.139.132c-.013.014-.029.024-.042.04s-.036.053-.056.079a1.733 1.733 0 0 0-.111.158c-.029.047-.054.1-.078.144a1.686 1.686 0 0 0-.07.161c-.021.055-.037.111-.052.168s-.026.106-.035.161a1.757 1.757 0 0 0-.019.19c0 .033-.01.064-.01.1s.005.04.006.059a1.682 1.682 0 0 0 .019.189c.008.054.015.107.027.159a1.753 1.753 0 0 0 .052.168c.019.053.036.105.058.156s.053.1.082.15.057.1.09.146.068.084.1.127a1.8 1.8 0 0 0 .129.135c.015.014.026.031.041.044l6.1 5.28h-4.937c-.021 0-.041.005-.062.006a1.761 1.761 0 0 0-.181.019c-.056.008-.111.015-.166.028s-.107.032-.16.05-.11.037-.163.062-.1.051-.144.079a1.715 1.715 0 0 0-.151.094c-.042.031-.082.066-.121.1a1.714 1.714 0 0 0-.141.133c-.013.015-.029.025-.042.04s-.036.052-.056.079a1.687 1.687 0 0 0-.111.157c-.029.047-.054.1-.078.144a1.656 1.656 0 0 0-.07.161 1.736 1.736 0 0 0-.052.167c-.014.053-.026.106-.035.161a1.75 1.75 0 0 0-.019.19c0 .033-.01.064-.01.1s.005.04.006.06a1.675 1.675 0 0 0 .019.189c.008.053.015.107.027.158a1.748 1.748 0 0 0 .052.168c.018.053.036.106.058.156s.053.1.082.15a1.661 1.661 0 0 0 .09.146c.032.044.068.085.1.126a1.807 1.807 0 0 0 .129.136c.015.014.026.031.041.044l9.672 8.373a1.77 1.77 0 0 0 2.32-2.675l-6.1-5.28h4.937a1.735 1.735 0 0 0 .363-.039c.018 0 .035-.012.054-.017a1.742 1.742 0 0 0 .288-.094c.034-.015.064-.036.1-.053a1.663 1.663 0 0 0 .215-.126c.035-.025.067-.055.1-.083a1.892 1.892 0 0 0 .176-.162c.012-.014.027-.023.039-.037s.036-.053.056-.079a1.734 1.734 0 0 0 .111-.157c.029-.047.054-.1.078-.144a1.689 1.689 0 0 0 .07-.16c.021-.056.037-.111.052-.168s.026-.105.035-.16a1.77 1.77 0 0 0 .019-.19c0-.033.01-.064.01-.1s-.005-.039-.006-.059a1.618 1.618 0 0 0-.019-.189c-.007-.053-.014-.107-.027-.158a1.738 1.738 0 0 0-.052-.169c-.018-.052-.036-.105-.058-.156a3.153 3.153 0 0 0-.172-.3c-.032-.044-.069-.085-.105-.127a1.728 1.728 0 0 0-.128-.135c-.015-.014-.026-.03-.041-.044l-6.1-5.28h4.937a1.766 1.766 0 0 0 1.763-1.767" data-name="패스 2666" transform="translate(.001 .001)"/>
        <path d="M126.331 40.345a1.764 1.764 0 0 0-2.31 2.667l9.672 8.373a1.764 1.764 0 0 0 2.31-2.667z" data-name="패스 2667" transform="translate(.001 .001)"/>
        <path d="M104.626 1.301a5.266 5.266 0 1 0 5.266 5.262 5.272 5.272 0 0 0-5.27-5.262m.006 7a1.737 1.737 0 1 1 1.736-1.738 1.739 1.739 0 0 1-1.736 1.738" data-name="패스 2668" transform="translate(.001 .001)"/>
        <path d="M118.353 4.711a1.764 1.764 0 1 0 0-3.529h-4.5a1.764 1.764 0 0 0-1.77 1.77l.01 11.039a1.764 1.764 0 1 0 3.529 0v-3.953h2.74a1.764 1.764 0 1 0 0-3.529h-2.74V4.715z" data-name="패스 2669" transform="translate(.001 .001)"/>
        <path d="M66.346 1.228a1.765 1.765 0 0 0-1.763 1.766l.015 16.425h-2.517a1.764 1.764 0 1 0 0 3.529h4.281a1.764 1.764 0 0 0 1.763-1.766l-.016-18.189a1.765 1.765 0 0 0-1.766-1.763" data-name="패스 2670" transform="translate(.001 .001)"/>
        <path d="M72.015 1.223a1.765 1.765 0 0 0-1.763 1.766l.016 18.189a1.764 1.764 0 0 0 3.529 0l-.016-18.189a1.765 1.765 0 0 0-1.766-1.763" data-name="패스 2671" transform="translate(.001 .001)"/>
        <path d="M81.818 1.321a5.266 5.266 0 1 0 5.27 5.262 5.272 5.272 0 0 0-5.27-5.262m.006 7a1.737 1.737 0 1 1 1.735-1.738 1.738 1.738 0 0 1-1.736 1.738" data-name="패스 2672" transform="translate(.001 .001)"/>
        <path d="M56.484 11.875a5.266 5.266 0 1 0-5.27-5.261 5.272 5.272 0 0 0 5.27 5.261m-.006-7a1.737 1.737 0 1 1-1.736 1.739 1.739 1.739 0 0 1 1.736-1.739" data-name="패스 2673" transform="translate(.001 .001)"/>
        <path d="M18.486 9.175a1.764 1.764 0 1 0 0 3.529l10.509-.009a1.764 1.764 0 0 0 0-3.529h-.854V4.79h.854a1.764 1.764 0 0 0 0-3.529l-10.509.009a1.764 1.764 0 1 0 0 3.529h.852v4.376zm4.377-4.38h1.746v4.376h-1.743z" data-name="패스 2674" transform="translate(.001 .001)"/>
        <path d="M9.415 10.313A1.764 1.764 0 1 0 12.3 8.288l-4.553-6.5c-.024-.033-.054-.06-.08-.091a1.689 1.689 0 0 0-.121-.14 1.652 1.652 0 0 0-.146-.124c-.03-.024-.054-.052-.086-.074-.011-.008-.023-.012-.034-.02a1.666 1.666 0 0 0-.176-.1c-.045-.023-.089-.048-.135-.067s-.112-.037-.168-.054-.101-.031-.16-.04-.11-.013-.165-.019-.114-.014-.171-.014-.113.009-.17.014-.111.008-.165.019-.109.029-.162.045a1.7 1.7 0 0 0-.168.055c-.048.02-.092.045-.139.07a1.8 1.8 0 0 0-.171.1c-.012.008-.025.012-.037.021-.034.023-.059.053-.091.079a1.267 1.267 0 0 0-.269.27c-.024.029-.052.053-.074.085L.318 8.298a1.764 1.764 0 1 0 2.891 2.021l3.1-4.441z" data-name="패스 2675" transform="translate(.001 .001)"/>
        <path d="M147.619 6.576V4.685h2.127a1.765 1.765 0 0 0 1.754-1.94 1.816 1.816 0 0 0-1.83-1.59l-7.631.007a1.816 1.816 0 0 0-1.83 1.592 1.765 1.765 0 0 0 1.758 1.936h2.127v1.892l-4.224 6.045a1.764 1.764 0 1 0 2.892 2.021l3.1-4.436 3.107 4.43a1.764 1.764 0 0 0 2.89-2.025z" data-name="패스 2676" transform="translate(.001 .001)"/>
        <path d="M46.985 19.437l-11.614.01a1.764 1.764 0 0 0 0 3.529l11.614-.01a1.764 1.764 0 1 0 0-3.529" data-name="패스 2677" transform="translate(.001 .001)"/>
        <path d="M135.793 17.004h-3.964v-1.459a1.764 1.764 0 1 0-3.529 0v1.462h-4.12a1.764 1.764 0 1 0 0 3.529l11.613-.01a1.764 1.764 0 1 0 0-3.529" data-name="패스 2678" transform="translate(.001 .001)"/>
        <path d="M29.553 15.869l-11.613.01a1.764 1.764 0 1 0 0 3.529l11.613-.01a1.764 1.764 0 1 0 0-3.529" data-name="패스 2679" transform="translate(.001 .001)"/>
        <path d="M51.385 15.615a1.765 1.765 0 0 1 1.763-1.766l6.676-.006a1.765 1.765 0 0 1 0 3.529h-4.912v3.815a1.764 1.764 0 0 1-3.529 0z" data-name="패스 2680" transform="translate(.001 .001)"/>
        <path d="M159.95 1.145h-4.5a1.765 1.765 0 0 0-1.763 1.766l.01 10.928a1.764 1.764 0 0 0 3.529 0l-.008-9.164h2.74a1.765 1.765 0 0 0 0-3.529" data-name="패스 2681" transform="translate(.001 .001)"/>
        <path d="M94.679 1.203h-4.5a1.764 1.764 0 1 0 0 3.529h2.74l.008 9.275a1.764 1.764 0 0 0 3.529 0l-.01-11.039a1.765 1.765 0 0 0-1.767-1.765" data-name="패스 2682" transform="translate(.001 .001)"/>
    </g>
</svg>
