<svg xmlns="http://www.w3.org/2000/svg" width="201.271" height="64.49" viewBox="0 0 201.271 64.49">
    <defs>
        <style>
            .prefix__cls-1{fill:#434dfe}
        </style>
    </defs>
    <g id="prefix__footer-logo-03">
        <path id="prefix__패스_2457" d="M156.585 15.694l10.383-.009a2.2 2.2 0 0 0 0-4.392l-8.187.007-.008-9.106a2.2 2.2 0 1 0-4.392 0l.01 11.3a2.195 2.195 0 0 0 2.2 2.194" class="prefix__cls-1" data-name="패스 2457"/>
        <path id="prefix__패스_2458" d="M15.094 24.227h-5.031v-4.922a2.2 2.2 0 1 0-4.392 0l.006 7.118a2.2 2.2 0 0 0 2.2 2.194l7.227-.006a2.2 2.2 0 1 0 0-4.392" class="prefix__cls-1" data-name="패스 2458"/>
        <path id="prefix__패스_2459" d="M46.043 5.953l10.383-.009a2.2 2.2 0 1 0 0-4.392l-10.383.009a2.2 2.2 0 0 0 0 4.392" class="prefix__cls-1" data-name="패스 2459"/>
        <path id="prefix__패스_2460" d="M46.055 20.183l10.383-.009a2.2 2.2 0 1 0 0-4.392l-8.187.007v-3.287l8.187-.007a2.2 2.2 0 1 0 0-4.391l-10.382.008a2.2 2.2 0 0 0-2.194 2.2l.007 7.678a2.2 2.2 0 0 0 2.2 2.195" class="prefix__cls-1" data-name="패스 2460"/>
        <path id="prefix__패스_2461" d="M170 30.678a2.2 2.2 0 0 0-2.2-2.194l-12.028.011c-.025 0-.049.007-.074.008a2.31 2.31 0 0 0-.235.024c-.066.009-.132.018-.2.033a2.175 2.175 0 0 0-.208.065c-.066.023-.132.045-.2.074s-.124.065-.185.1-.125.073-.185.115-.1.083-.153.127a2.236 2.236 0 0 0-.173.164c-.017.018-.037.031-.053.049s-.044.066-.069.1a2.231 2.231 0 0 0-.138.2c-.036.058-.067.118-.1.179s-.062.131-.088.2-.046.138-.065.209-.033.132-.044.2a2.33 2.33 0 0 0-.024.236c0 .041-.012.08-.012.121 0 .025.007.049.008.073a2.31 2.31 0 0 0 .024.235c.01.067.018.133.034.2s.041.14.065.209.045.131.073.194.066.125.1.187.071.124.112.181.085.1.13.157a2.124 2.124 0 0 0 .16.168c.018.018.032.038.051.055l7.59 6.571-6.145.005c-.026 0-.051.007-.077.008-.076 0-.15.013-.226.023s-.138.019-.206.035-.134.039-.2.062a2.067 2.067 0 0 0-.2.077c-.061.028-.12.064-.179.1s-.128.074-.188.117-.1.082-.151.125a2.276 2.276 0 0 0-.175.165c-.016.018-.036.031-.052.05s-.044.065-.069.1a2.091 2.091 0 0 0-.138.2c-.036.059-.067.118-.1.18s-.062.131-.088.2a2.175 2.175 0 0 0-.065.208c-.017.066-.033.132-.044.2a2.33 2.33 0 0 0-.01.216c0 .041-.012.08-.012.121 0 .025.007.049.008.074a2.055 2.055 0 0 0 .024.235c.01.066.018.133.034.2s.041.14.065.209.045.132.073.195.066.125.1.187.071.124.112.181.085.106.13.157.1.116.16.169c.018.017.032.038.051.055l12.037 10.421a2.2 2.2 0 1 0 2.875-3.32l-7.589-6.571 6.145-.005a2.173 2.173 0 0 0 .452-.048c.023-.005.044-.015.067-.021a2.142 2.142 0 0 0 .358-.117c.042-.018.08-.045.121-.066a2.154 2.154 0 0 0 .268-.156c.044-.031.083-.068.125-.1a2.319 2.319 0 0 0 .218-.2c.015-.017.034-.029.049-.046s.044-.066.069-.1a2.215 2.215 0 0 0 .138-.195c.036-.059.067-.119.1-.18s.062-.131.088-.2.046-.138.065-.209.032-.131.044-.2a2.36 2.36 0 0 0 .024-.236c0-.041.012-.08.012-.121 0-.025-.007-.048-.008-.073a2.055 2.055 0 0 0-.024-.235c-.009-.066-.018-.133-.033-.2s-.041-.14-.065-.21-.044-.131-.073-.194a2.021 2.021 0 0 0-.1-.188 1.749 1.749 0 0 0-.112-.18c-.04-.055-.085-.106-.131-.158a2.1 2.1 0 0 0-.159-.168c-.019-.017-.032-.038-.052-.054l-7.589-6.571 6.145-.005a2.2 2.2 0 0 0 2.193-2.2" class="prefix__cls-1" data-name="패스 2461"/>
        <path id="prefix__패스_2462" d="M157.231 50.213a2.2 2.2 0 0 0-2.875 3.32l12.037 10.421a2.2 2.2 0 1 0 2.875-3.319z" class="prefix__cls-1" data-name="패스 2462"/>
        <path id="prefix__패스_2463" d="M130.218 1.62a6.554 6.554 0 1 0 6.559 6.548 6.562 6.562 0 0 0-6.559-6.548m.007 8.716a2.163 2.163 0 1 1 2.16-2.164 2.164 2.164 0 0 1-2.16 2.164" class="prefix__cls-1" data-name="패스 2463"/>
        <path id="prefix__패스_2464" d="M147.3 5.864a2.2 2.2 0 0 0 0-4.392h-5.607a2.2 2.2 0 0 0-2.194 2.2l.012 13.739a2.2 2.2 0 1 0 4.392 0v-4.919h3.41a2.2 2.2 0 0 0 0-4.392h-3.41V5.868z" class="prefix__cls-1" data-name="패스 2464"/>
        <path id="prefix__패스_2465" d="M82.574 1.529a2.2 2.2 0 0 0-2.194 2.2l.02 20.44h-3.132a2.2 2.2 0 0 0 0 4.392h5.328a2.2 2.2 0 0 0 2.194-2.2l-.02-22.638a2.2 2.2 0 0 0-2.2-2.194" class="prefix__cls-1" data-name="패스 2465"/>
        <path id="prefix__패스_2466" d="M89.63 1.523a2.2 2.2 0 0 0-2.194 2.2l.02 22.638a2.2 2.2 0 1 0 4.392 0l-.02-22.638a2.2 2.2 0 0 0-2.2-2.194" class="prefix__cls-1" data-name="패스 2466"/>
        <path id="prefix__패스_2467" d="M101.83 1.645a6.554 6.554 0 1 0 6.559 6.548 6.562 6.562 0 0 0-6.559-6.548m.008 8.716A2.163 2.163 0 1 1 104 8.2a2.164 2.164 0 0 1-2.16 2.164" class="prefix__cls-1" data-name="패스 2467"/>
        <path id="prefix__패스_2468" d="M70.3 14.78a6.554 6.554 0 1 0-6.559-6.548A6.562 6.562 0 0 0 70.3 14.78m-.008-8.715a2.162 2.162 0 1 1-2.16 2.164 2.165 2.165 0 0 1 2.16-2.164" class="prefix__cls-1" data-name="패스 2468"/>
        <path id="prefix__패스_2469" d="M23.008 11.419a2.2 2.2 0 0 0 0 4.392l13.08-.011a2.2 2.2 0 0 0 0-4.392h-1.061l-.005-5.446h1.062a2.2 2.2 0 0 0 0-4.393L23 1.58a2.2 2.2 0 1 0 0 4.392h1.061v5.446zm5.448-5.451h2.173v5.446h-2.173z" class="prefix__cls-1" data-name="패스 2469"/>
        <path id="prefix__패스_2470" d="M11.719 12.836a2.2 2.2 0 1 0 3.6-2.52L9.648 2.232c-.03-.042-.067-.074-.1-.114a2.055 2.055 0 0 0-.15-.174 1.958 1.958 0 0 0-.184-.159c-.038-.03-.068-.065-.108-.092-.013-.01-.029-.015-.043-.024a2.137 2.137 0 0 0-.219-.122c-.056-.029-.111-.06-.168-.084s-.139-.046-.21-.067-.133-.042-.2-.056-.136-.016-.2-.023S7.92 1.3 7.848 1.3s-.141.011-.212.017-.138.011-.206.024-.135.037-.2.057-.14.039-.208.066-.115.056-.173.086-.144.074-.212.119c-.015.01-.032.016-.046.026-.042.029-.074.066-.113.1a2.081 2.081 0 0 0-.175.151 1.969 1.969 0 0 0-.159.185c-.03.036-.065.067-.092.106L.4 10.329A2.2 2.2 0 1 0 4 12.844l3.853-5.522z" class="prefix__cls-1" data-name="패스 2470"/>
        <path id="prefix__패스_2471" d="M183.727 8.185V5.832h2.647a2.2 2.2 0 0 0 2.183-2.414 2.26 2.26 0 0 0-2.282-1.978l-9.5.008a2.259 2.259 0 0 0-2.275 1.98 2.2 2.2 0 0 0 2.188 2.41h2.647v2.355l-5.257 7.525a2.2 2.2 0 0 0 3.6 2.515l3.857-5.521 3.866 5.514A2.2 2.2 0 0 0 189 15.7z" class="prefix__cls-1" data-name="패스 2471"/>
        <path id="prefix__패스_2472" d="M58.478 24.189l-14.454.011a2.2 2.2 0 0 0 0 4.392l14.454-.013a2.2 2.2 0 0 0 0-4.392" class="prefix__cls-1" data-name="패스 2472"/>
        <path id="prefix__패스_2473" d="M169.008 21.164h-4.934v-1.82a2.2 2.2 0 1 0-4.392 0v1.82h-5.128a2.2 2.2 0 0 0 0 4.392l14.454-.013a2.2 2.2 0 1 0 0-4.391" class="prefix__cls-1" data-name="패스 2473"/>
        <path id="prefix__패스_2474" d="M36.782 19.758l-14.454.012a2.2 2.2 0 1 0 0 4.392l14.454-.013a2.2 2.2 0 1 0 0-4.391" class="prefix__cls-1" data-name="패스 2474"/>
        <path id="prefix__패스_2475" d="M63.954 19.435a2.2 2.2 0 0 1 2.194-2.2l8.309-.007a2.2 2.2 0 0 1 0 4.392h-6.113v4.748a2.2 2.2 0 0 1-4.392 0z" class="prefix__cls-1" data-name="패스 2475"/>
        <path id="prefix__패스_2476" d="M199.074 1.427h-5.607a2.2 2.2 0 0 0-2.194 2.2l.012 13.6a2.2 2.2 0 0 0 4.392 0l-.01-11.406h3.41a2.2 2.2 0 1 0 0-4.391" class="prefix__cls-1" data-name="패스 2476"/>
        <path id="prefix__패스_2477" d="M117.835 1.5h-5.606a2.2 2.2 0 0 0 0 4.392h3.41l.01 11.544a2.2 2.2 0 0 0 4.392 0l-.012-13.739a2.2 2.2 0 0 0-2.2-2.2" class="prefix__cls-1" data-name="패스 2477"/>
    </g>
</svg>
