<svg xmlns="http://www.w3.org/2000/svg" width="133.761" height="42.859" viewBox="0 0 133.761 42.859">
    <g>
        <path d="M104.062 10.429l6.9-.006a1.46 1.46 0 0 0 0-2.919h-5.441l-.005-6.052a1.46 1.46 0 1 0-2.919 0l.007 7.511a1.46 1.46 0 0 0 1.461 1.458" data-name="패스 3069" transform="translate(.001 .001)"/>
        <path d="M10.031 16.1H6.688v-3.271a1.46 1.46 0 1 0-2.919 0v4.73a1.459 1.459 0 0 0 1.462 1.46h4.8a1.46 1.46 0 1 0 0-2.919" data-name="패스 3070" transform="translate(.001 .001)"/>
        <path d="M30.599 3.955l6.9-.006a1.46 1.46 0 1 0 0-2.919l-6.9.006a1.46 1.46 0 0 0 0 2.919" data-name="패스 3071" transform="translate(.001 .001)"/>
        <path d="M30.61 13.412l6.9-.006a1.46 1.46 0 1 0 0-2.919h-5.441V8.302h5.441a1.46 1.46 0 1 0 0-2.919l-6.9.006a1.459 1.459 0 0 0-1.458 1.461v5.1a1.46 1.46 0 0 0 1.461 1.458" data-name="패스 3072" transform="translate(.001 .001)"/>
        <path d="M112.976 20.387a1.459 1.459 0 0 0-1.461-1.458l-7.994.007c-.017 0-.032 0-.049.005a1.394 1.394 0 0 0-.156.016c-.044.006-.088.012-.131.022s-.092.027-.138.043-.088.03-.13.049-.082.043-.123.067-.083.048-.123.076-.068.055-.1.084a1.439 1.439 0 0 0-.115.109c-.011.012-.024.02-.035.033s-.029.044-.046.065a1.439 1.439 0 0 0-.091.13c-.024.039-.045.079-.065.119a1.4 1.4 0 0 0-.058.133c-.017.046-.031.092-.043.139s-.022.087-.029.133a1.456 1.456 0 0 0-.016.157c0 .027-.008.053-.008.081s0 .033.005.049a1.4 1.4 0 0 0 .016.156c.006.044.012.088.022.131s.027.093.043.139.03.087.048.129.044.083.068.124.047.082.075.12.057.07.086.1a1.5 1.5 0 0 0 .106.112c.012.012.021.025.034.037l5.044 4.367h-4.084c-.017 0-.034 0-.051.005a1.456 1.456 0 0 0-.15.015c-.046.007-.092.012-.137.023s-.089.026-.133.041-.091.031-.135.051-.08.042-.119.065a1.418 1.418 0 0 0-.125.078c-.035.025-.067.055-.1.083a1.417 1.417 0 0 0-.116.11c-.011.012-.024.021-.035.033s-.029.043-.046.065a1.4 1.4 0 0 0-.091.13c-.024.039-.045.079-.065.119a1.364 1.364 0 0 0-.058.133 1.427 1.427 0 0 0-.043.138c-.011.044-.022.088-.029.133a1.448 1.448 0 0 0-.016.157c0 .027-.008.053-.008.081s0 .033.005.049a1.389 1.389 0 0 0 .016.156c.006.044.012.088.022.131a1.439 1.439 0 0 0 .043.139c.015.044.03.087.048.129s.044.083.068.124a1.366 1.366 0 0 0 .075.12c.026.037.057.07.086.1a1.49 1.49 0 0 0 .106.112c.012.011.021.025.034.037l8 6.926a1.459 1.459 0 0 0 1.91-2.206l-5.044-4.367h4.084a1.435 1.435 0 0 0 .3-.032c.015 0 .029-.01.044-.014a1.442 1.442 0 0 0 .238-.078c.028-.012.053-.03.081-.044a1.374 1.374 0 0 0 .178-.1c.029-.021.055-.045.083-.069a1.556 1.556 0 0 0 .145-.134c.01-.011.022-.019.033-.03s.029-.044.046-.065a1.423 1.423 0 0 0 .091-.13c.024-.039.045-.079.065-.12a1.4 1.4 0 0 0 .058-.133c.017-.046.031-.092.043-.139s.021-.087.029-.132a1.48 1.48 0 0 0 .016-.157c0-.027.008-.053.008-.081s0-.032-.005-.049a1.339 1.339 0 0 0-.016-.156c-.006-.044-.012-.088-.022-.13a1.442 1.442 0 0 0-.043-.14c-.015-.043-.029-.087-.048-.129a2.6 2.6 0 0 0-.143-.245c-.026-.037-.057-.07-.087-.105a1.433 1.433 0 0 0-.106-.112c-.012-.011-.021-.025-.034-.036l-5.044-4.367h4.084a1.461 1.461 0 0 0 1.458-1.461" data-name="패스 3073" transform="translate(.001 .001)"/>
        <path d="M104.491 33.37a1.459 1.459 0 0 0-1.91 2.206l8 6.926a1.459 1.459 0 1 0 1.91-2.206z" data-name="패스 3074" transform="translate(.001 .001)"/>
        <path d="M86.539 1.076a4.355 4.355 0 1 0 4.359 4.352 4.361 4.361 0 0 0-4.359-4.352m.005 5.792A1.437 1.437 0 1 1 87.98 5.43a1.438 1.438 0 0 1-1.436 1.438" data-name="패스 3075" transform="translate(.001 .001)"/>
        <path d="M97.892 3.896a1.46 1.46 0 0 0 0-2.919h-3.726a1.459 1.459 0 0 0-1.46 1.464l.008 9.131a1.46 1.46 0 1 0 2.919 0v-3.27H97.9a1.46 1.46 0 1 0 0-2.919h-2.267V3.898z" data-name="패스 3076" transform="translate(.001 .001)"/>
        <path d="M54.876 1.015a1.46 1.46 0 0 0-1.458 1.461l.012 13.585h-2.082a1.46 1.46 0 1 0 0 2.919h3.541a1.459 1.459 0 0 0 1.458-1.461l-.014-15.045a1.46 1.46 0 0 0-1.461-1.459" data-name="패스 3077" transform="translate(.001 .001)"/>
        <path d="M59.565 1.011a1.46 1.46 0 0 0-1.458 1.461l.013 15.045a1.46 1.46 0 1 0 2.919 0l-.013-15.045a1.46 1.46 0 0 0-1.461-1.458" data-name="패스 3078" transform="translate(.001 .001)"/>
        <path d="M67.674 1.092a4.355 4.355 0 1 0 4.359 4.352 4.361 4.361 0 0 0-4.359-4.352m.005 5.792a1.437 1.437 0 1 1 1.436-1.438 1.438 1.438 0 0 1-1.436 1.438" data-name="패스 3079" transform="translate(.001 .001)"/>
        <path d="M46.719 9.822A4.355 4.355 0 1 0 42.36 5.47a4.361 4.361 0 0 0 4.359 4.352m-.005-5.792a1.437 1.437 0 1 1-1.436 1.438 1.438 1.438 0 0 1 1.436-1.438" data-name="패스 3080" transform="translate(.001 .001)"/>
        <path d="M15.29 7.589a1.46 1.46 0 1 0 0 2.919l8.692-.008a1.46 1.46 0 0 0 0-2.919h-.706V3.962h.706a1.46 1.46 0 0 0 0-2.919l-8.692.008a1.46 1.46 0 1 0 0 2.919h.705v3.619zm3.62-3.623h1.444v3.619h-1.441z" data-name="패스 3081" transform="translate(.001 .001)"/>
        <path d="M7.787 8.53a1.46 1.46 0 1 0 2.39-1.675L6.411 1.482c-.02-.028-.045-.049-.066-.076a1.4 1.4 0 0 0-.1-.116 1.367 1.367 0 0 0-.123-.106c-.025-.02-.045-.043-.071-.061-.009-.007-.019-.01-.029-.016a1.378 1.378 0 0 0-.146-.081c-.037-.019-.074-.04-.112-.056S5.671.939 5.625.926 5.537.898 5.491.889 5.4.878 5.355.874 5.261.863 5.213.863s-.094.007-.141.012-.092.007-.137.016-.09.024-.134.037a1.4 1.4 0 0 0-.138.044c-.039.016-.076.037-.115.058a1.488 1.488 0 0 0-.141.079c-.01.007-.021.01-.03.017-.028.019-.049.044-.075.065a1.048 1.048 0 0 0-.222.223c-.02.024-.043.044-.061.07L.263 6.863a1.459 1.459 0 1 0 2.392 1.671l2.564-3.67z" data-name="패스 3082" transform="translate(.001 .001)"/>
        <path d="M122.1 5.439V3.875h1.759a1.46 1.46 0 0 0 1.451-1.6 1.5 1.5 0 0 0-1.516-1.314l-6.312.006a1.5 1.5 0 0 0-1.514 1.317 1.46 1.46 0 0 0 1.454 1.6h1.759v1.559l-3.494 5a1.459 1.459 0 1 0 2.392 1.671l2.563-3.669 2.569 3.664a1.46 1.46 0 0 0 2.39-1.675z" data-name="패스 3083" transform="translate(.001 .001)"/>
        <path d="M38.864 16.077l-9.606.008a1.46 1.46 0 0 0 0 2.919l9.606-.011a1.46 1.46 0 1 0 0-2.919" data-name="패스 3084" transform="translate(.001 .001)"/>
        <path d="M112.317 14.064h-3.279v-1.207a1.46 1.46 0 1 0-2.919 0v1.209h-3.408a1.46 1.46 0 1 0 0 2.919l9.605-.008a1.46 1.46 0 1 0 0-2.919" data-name="패스 3085" transform="translate(.001 .001)"/>
        <path d="M24.444 13.125l-9.605.008a1.46 1.46 0 1 0 0 2.919l9.605-.008a1.46 1.46 0 1 0 0-2.919" data-name="패스 3086" transform="translate(.001 .001)"/>
        <path d="M42.502 12.916a1.46 1.46 0 0 1 1.458-1.461h5.522a1.46 1.46 0 0 1 0 2.919h-4.063v3.156a1.46 1.46 0 0 1-2.919 0z" data-name="패스 3087" transform="translate(.001 .001)"/>
        <path d="M132.299.947h-3.726a1.46 1.46 0 0 0-1.458 1.461l.008 9.039a1.46 1.46 0 0 0 2.919 0l-.007-7.58h2.266a1.46 1.46 0 0 0 0-2.919" data-name="패스 3088" transform="translate(.001 .001)"/>
        <path d="M78.31.995h-3.726a1.46 1.46 0 1 0 0 2.919h2.267l.007 7.672a1.46 1.46 0 0 0 2.919 0l-.008-9.131a1.46 1.46 0 0 0-1.46-1.458" data-name="패스 3089" transform="translate(.001 .001)"/>
    </g>
</svg>
