<svg xmlns="http://www.w3.org/2000/svg" id="prefix__sns-ntv" width="50" height="50" viewBox="0 0 50 50">
    <g id="prefix__그룹_976">
        <path id="prefix__사각형_381" d="M25 50A25.009 25.009 0 0 1 0 25 25.009 25.009 0 0 1 25 0a25.009 25.009 0 0 1 25 25 25.009 25.009 0 0 1-25 25z" style="fill:#434dfe"/>
    </g>
    <path id="prefix__패스_2789" d="M33.3 22.2l-12.5-7.8a3 3 0 1 0-3.3 5l8.7 5.4-4.1 2.5v-3.2a1.02 1.02 0 0 0-.5-.8l-4.5-2.8a.646.646 0 0 0-1 .6v11.7a2.518 2.518 0 0 0 .5 1.6 3.055 3.055 0 0 0 4.1 1l12.7-8a3.325 3.325 0 0 0 1.2-1.4 3.073 3.073 0 0 0-1.3-3.8z" data-name="패스 2789" style="fill:#fff"/>
</svg>
