<svg xmlns="http://www.w3.org/2000/svg" id="prefix__sns-np" width="50" height="50" viewBox="0 0 50 50">
    <g id="prefix__그룹_976">
        <path id="prefix__사각형_381" d="M25 50A25.009 25.009 0 0 1 0 25 25.009 25.009 0 0 1 25 0a25.009 25.009 0 0 1 25 25 25.009 25.009 0 0 1-25 25z" style="fill:#434dfe"/>
    </g>
    <path id="prefix__패스_2790" d="M22.5 38.9h5.1l-2.1 3.6c-.1.3-.5.3-.7.2-.1 0-.1-.1-.2-.2zm-4.8-8.3l4 6.9h6.7l4-6.9zm14.6-18.3v16.8H17.7V12.3a1.11 1.11 0 0 1 1.1-1.1h12.6a1.018 1.018 0 0 1 .9 1.1zm-4.2 5H26v2.9l-2-2.9h-2.2V23H24v-2.9l1.9 2.9h2.2z" data-name="패스 2790" style="fill:#fff"/>
</svg>
