<svg xmlns="http://www.w3.org/2000/svg" id="prefix__그룹_976" width="50" height="50" data-name="그룹 976" viewBox="0 0 50 50">
    <path id="prefix__사각형_381" d="M25 50A25 25 0 0 1 0 25 25 25 0 0 1 25 0a25 25 0 0 1 25 25 25 25 0 0 1-25 25z" data-name="사각형 381" style="fill:#434dfe"/>
    <path id="prefix__패스_2639" d="M36.5 19.186a3.017 3.017 0 0 0-2.121-2.136c-1.872-.5-9.377-.5-9.377-.5s-7.5 0-9.377.5a3.017 3.017 0 0 0-2.125 2.136A31.6 31.6 0 0 0 13 25a31.6 31.6 0 0 0 .5 5.814 3.017 3.017 0 0 0 2.121 2.136c1.872.5 9.377.5 9.377.5s7.505 0 9.377-.5a3.017 3.017 0 0 0 2.125-2.136A31.6 31.6 0 0 0 37 25a31.6 31.6 0 0 0-.5-5.814zm-13.955 9.382v-7.136L28.818 25z" data-name="패스 2639" style="fill:#fff"/>
</svg>
