<svg xmlns="http://www.w3.org/2000/svg" width="50" height="50" viewBox="0 0 50 50">
    <g id="prefix__그룹_977" transform="translate(-1245 -1183)">
        <path id="prefix__사각형_208" d="M1270 1233a25 25 0 0 1-25-25 25 25 0 0 1 25-25 25 25 0 0 1 25 25 25 25 0 0 1-25 25z" style="fill:#434dfe"/>
        <path id="prefix__f" d="M1271.85 1218.325v-9.272h3.112l.466-3.613h-3.578v-2.307c0-1.046.29-1.759 1.791-1.759h1.913v-3.232a25.689 25.689 0 0 0-2.788-.142c-2.759 0-4.647 1.684-4.647 4.776v2.665H1265v3.613h3.12v9.272z" style="fill:#fff"/>
    </g>
</svg>
